<svg xmlns="http://www.w3.org/2000/svg" xmlns:xlink="http://www.w3.org/1999/xlink" width="px" height="50px" viewBox="0 0 186 50"><defs><linearGradient id="linear0" gradientUnits="userSpaceOnUse" x1="443" y1="1" x2="0" y2="1" gradientTransform="matrix(0.419865,0,0,0.420168,0,0)"><stop offset="0" style="stop-color:rgb(92.941176%,69.019608%,14.117647%);stop-opacity:1;"></stop><stop offset="1" style="stop-color:rgb(88.627451%,86.666667%,16.078431%);stop-opacity:1;"></stop></linearGradient><clipPath id="clip1"><path d="M 0 0 L 49.542969 0 L 49.542969 50 L 0 50 Z M 0 0 "></path></clipPath></defs><g id="surface1"><path style=" stroke:none;fill-rule:nonzero;fill:url(#linear0);" d="M 186 25 C 186 11.425781 175.003906 0.421875 161.4375 0.421875 L 24.5625 0.421875 C 10.996094 0.421875 0 11.425781 0 25 C 0 38.574219 10.996094 49.578125 24.5625 49.578125 L 161.4375 49.578125 C 175.003906 49.578125 186 38.574219 186 25 Z M 186 25 "></path><path style=" stroke:none;fill-rule:nonzero;fill:rgb(0%,0%,0%);fill-opacity:1;" d="M 71.597656 13.011719 L 68.207031 23.949219 L 66.371094 23.949219 L 63.980469 16.476562 C 63.914062 16.296875 63.855469 16.074219 63.800781 15.8125 C 63.769531 15.9375 63.738281 16.054688 63.710938 16.167969 C 63.679688 16.277344 63.644531 16.382812 63.609375 16.476562 L 61.199219 23.949219 L 59.355469 23.949219 L 55.96875 13.011719 L 57.671875 13.011719 C 57.847656 13.011719 57.992188 13.054688 58.109375 13.140625 C 58.230469 13.222656 58.3125 13.332031 58.351562 13.476562 L 60.210938 20.015625 C 60.25 20.179688 60.289062 20.355469 60.324219 20.546875 C 60.363281 20.734375 60.402344 20.929688 60.445312 21.136719 C 60.484375 20.925781 60.527344 20.726562 60.574219 20.539062 C 60.625 20.351562 60.675781 20.179688 60.730469 20.015625 L 62.878906 13.476562 C 62.917969 13.359375 62.996094 13.253906 63.113281 13.15625 C 63.234375 13.0625 63.378906 13.011719 63.550781 13.011719 L 64.148438 13.011719 C 64.324219 13.011719 64.46875 13.054688 64.578125 13.140625 C 64.6875 13.226562 64.773438 13.339844 64.828125 13.476562 L 66.964844 20.015625 C 67.074219 20.328125 67.167969 20.691406 67.253906 21.097656 C 67.320312 20.699219 67.390625 20.339844 67.472656 20.015625 L 69.332031 13.476562 C 69.363281 13.347656 69.4375 13.242188 69.558594 13.148438 C 69.683594 13.058594 69.832031 13.011719 70.003906 13.011719 Z M 75.152344 17.023438 C 75.453125 16.738281 75.785156 16.511719 76.148438 16.332031 C 76.511719 16.15625 76.9375 16.070312 77.425781 16.070312 C 77.847656 16.070312 78.222656 16.140625 78.550781 16.289062 C 78.878906 16.429688 79.152344 16.632812 79.367188 16.894531 C 79.589844 17.152344 79.757812 17.460938 79.867188 17.824219 C 79.984375 18.179688 80.039062 18.578125 80.039062 19.011719 L 80.039062 23.949219 L 78.175781 23.949219 L 78.175781 19.011719 C 78.175781 18.535156 78.066406 18.171875 77.847656 17.914062 C 77.632812 17.652344 77.300781 17.519531 76.859375 17.519531 C 76.535156 17.519531 76.234375 17.59375 75.953125 17.742188 C 75.671875 17.886719 75.402344 18.085938 75.152344 18.335938 L 75.152344 23.949219 L 73.285156 23.949219 L 73.285156 12.710938 L 75.152344 12.710938 Z M 86.667969 20.636719 C 86.128906 20.664062 85.675781 20.710938 85.308594 20.78125 C 84.941406 20.847656 84.644531 20.933594 84.421875 21.039062 C 84.203125 21.144531 84.042969 21.265625 83.949219 21.410156 C 83.851562 21.550781 83.804688 21.703125 83.804688 21.871094 C 83.804688 22.199219 83.898438 22.433594 84.089844 22.574219 C 84.289062 22.714844 84.542969 22.785156 84.855469 22.785156 C 85.238281 22.785156 85.566406 22.71875 85.84375 22.582031 C 86.125 22.441406 86.402344 22.226562 86.667969 21.945312 Z M 82.390625 17.269531 C 83.28125 16.453125 84.355469 16.046875 85.609375 16.046875 C 86.0625 16.046875 86.46875 16.121094 86.828125 16.273438 C 87.183594 16.417969 87.488281 16.625 87.734375 16.894531 C 87.980469 17.15625 88.167969 17.46875 88.292969 17.839844 C 88.425781 18.207031 88.488281 18.609375 88.488281 19.046875 L 88.488281 23.949219 L 87.644531 23.949219 C 87.464844 23.949219 87.332031 23.925781 87.234375 23.875 C 87.140625 23.820312 87.0625 23.710938 87.007812 23.546875 L 86.84375 22.988281 C 86.644531 23.164062 86.453125 23.320312 86.265625 23.457031 C 86.082031 23.589844 85.886719 23.699219 85.683594 23.789062 C 85.484375 23.882812 85.265625 23.949219 85.035156 23.996094 C 84.808594 24.046875 84.558594 24.070312 84.28125 24.070312 C 83.953125 24.070312 83.648438 24.027344 83.371094 23.941406 C 83.097656 23.851562 82.855469 23.71875 82.65625 23.542969 C 82.453125 23.363281 82.296875 23.144531 82.1875 22.882812 C 82.074219 22.621094 82.019531 22.316406 82.019531 21.96875 C 82.019531 21.769531 82.054688 21.578125 82.117188 21.386719 C 82.183594 21.1875 82.289062 21.003906 82.4375 20.824219 C 82.585938 20.648438 82.78125 20.484375 83.019531 20.328125 C 83.253906 20.171875 83.542969 20.035156 83.886719 19.917969 C 84.234375 19.800781 84.636719 19.710938 85.097656 19.636719 C 85.554688 19.5625 86.078125 19.519531 86.667969 19.503906 L 86.667969 19.046875 C 86.667969 18.53125 86.558594 18.144531 86.335938 17.898438 C 86.113281 17.648438 85.792969 17.519531 85.375 17.519531 C 85.074219 17.519531 84.820312 17.554688 84.621094 17.625 C 84.421875 17.699219 84.25 17.777344 84.097656 17.867188 C 83.949219 17.953125 83.808594 18.03125 83.683594 18.101562 C 83.5625 18.175781 83.425781 18.210938 83.273438 18.210938 C 83.144531 18.210938 83.03125 18.175781 82.941406 18.109375 C 82.851562 18.039062 82.777344 17.960938 82.722656 17.867188 Z M 93.484375 24.070312 C 92.808594 24.070312 92.289062 23.882812 91.925781 23.503906 C 91.570312 23.121094 91.390625 22.59375 91.390625 21.921875 L 91.390625 17.589844 L 90.597656 17.589844 C 90.496094 17.589844 90.410156 17.554688 90.339844 17.492188 C 90.269531 17.425781 90.234375 17.328125 90.234375 17.195312 L 90.234375 16.453125 L 91.480469 16.25 L 91.875 14.132812 C 91.898438 14.03125 91.949219 13.953125 92.019531 13.898438 C 92.089844 13.84375 92.179688 13.816406 92.289062 13.816406 L 93.257812 13.816406 L 93.257812 16.257812 L 95.328125 16.257812 L 95.328125 17.589844 L 93.257812 17.589844 L 93.257812 21.792969 C 93.257812 22.035156 93.316406 22.226562 93.429688 22.363281 C 93.550781 22.496094 93.714844 22.566406 93.921875 22.566406 C 94.039062 22.566406 94.132812 22.554688 94.210938 22.527344 C 94.289062 22.496094 94.359375 22.46875 94.414062 22.4375 C 94.472656 22.40625 94.527344 22.378906 94.574219 22.355469 C 94.617188 22.324219 94.664062 22.308594 94.707031 22.308594 C 94.765625 22.308594 94.808594 22.324219 94.84375 22.355469 C 94.878906 22.378906 94.917969 22.417969 94.957031 22.476562 L 95.515625 23.382812 C 95.246094 23.609375 94.933594 23.78125 94.582031 23.898438 C 94.226562 24.011719 93.863281 24.070312 93.484375 24.070312 Z M 102.011719 17.703125 C 101.960938 17.78125 101.90625 17.839844 101.851562 17.875 C 101.796875 17.90625 101.726562 17.921875 101.640625 17.921875 C 101.550781 17.921875 101.453125 17.898438 101.34375 17.847656 C 101.246094 17.796875 101.125 17.742188 100.992188 17.679688 C 100.855469 17.613281 100.699219 17.554688 100.523438 17.507812 C 100.351562 17.457031 100.148438 17.429688 99.910156 17.429688 C 99.542969 17.429688 99.253906 17.507812 99.039062 17.664062 C 98.835938 17.820312 98.730469 18.023438 98.730469 18.277344 C 98.730469 18.445312 98.785156 18.585938 98.890625 18.699219 C 99 18.8125 99.144531 18.910156 99.320312 18.996094 C 99.5 19.082031 99.707031 19.160156 99.933594 19.230469 C 100.160156 19.296875 100.386719 19.367188 100.621094 19.449219 C 100.855469 19.53125 101.089844 19.625 101.316406 19.730469 C 101.542969 19.832031 101.742188 19.960938 101.921875 20.121094 C 102.101562 20.277344 102.246094 20.46875 102.351562 20.691406 C 102.460938 20.910156 102.515625 21.179688 102.515625 21.492188 C 102.515625 21.863281 102.449219 22.210938 102.3125 22.527344 C 102.183594 22.839844 101.984375 23.113281 101.722656 23.34375 C 101.460938 23.570312 101.136719 23.75 100.75 23.882812 C 100.367188 24.007812 99.921875 24.070312 99.417969 24.070312 C 99.152344 24.070312 98.890625 24.046875 98.632812 23.996094 C 98.378906 23.949219 98.136719 23.882812 97.898438 23.796875 C 97.667969 23.710938 97.449219 23.613281 97.25 23.496094 C 97.054688 23.378906 96.878906 23.253906 96.726562 23.117188 L 97.160156 22.40625 C 97.214844 22.320312 97.28125 22.253906 97.355469 22.210938 C 97.429688 22.164062 97.527344 22.140625 97.640625 22.140625 C 97.757812 22.140625 97.867188 22.175781 97.96875 22.242188 C 98.074219 22.304688 98.195312 22.375 98.332031 22.453125 C 98.464844 22.527344 98.625 22.597656 98.804688 22.664062 C 98.992188 22.730469 99.226562 22.761719 99.507812 22.761719 C 99.730469 22.761719 99.917969 22.738281 100.074219 22.6875 C 100.238281 22.632812 100.367188 22.558594 100.46875 22.476562 C 100.574219 22.390625 100.648438 22.289062 100.695312 22.179688 C 100.746094 22.0625 100.769531 21.945312 100.769531 21.824219 C 100.769531 21.644531 100.714844 21.492188 100.605469 21.378906 C 100.5 21.261719 100.355469 21.160156 100.175781 21.074219 C 99.996094 20.988281 99.792969 20.914062 99.5625 20.847656 C 99.335938 20.777344 99.101562 20.703125 98.859375 20.621094 C 98.621094 20.542969 98.386719 20.449219 98.15625 20.34375 C 97.929688 20.230469 97.726562 20.09375 97.542969 19.925781 C 97.367188 19.757812 97.222656 19.554688 97.113281 19.3125 C 97.007812 19.070312 96.953125 18.777344 96.953125 18.4375 C 96.953125 18.117188 97.019531 17.816406 97.144531 17.527344 C 97.269531 17.242188 97.453125 16.992188 97.695312 16.78125 C 97.941406 16.5625 98.246094 16.390625 98.609375 16.265625 C 98.976562 16.132812 99.402344 16.070312 99.878906 16.070312 C 100.414062 16.070312 100.898438 16.15625 101.339844 16.332031 C 101.777344 16.511719 102.140625 16.742188 102.433594 17.03125 Z M 108.773438 20.636719 C 108.234375 20.664062 107.78125 20.710938 107.414062 20.78125 C 107.046875 20.847656 106.75 20.933594 106.527344 21.039062 C 106.308594 21.144531 106.148438 21.265625 106.054688 21.410156 C 105.957031 21.550781 105.910156 21.703125 105.910156 21.871094 C 105.910156 22.199219 106.003906 22.433594 106.195312 22.574219 C 106.394531 22.714844 106.648438 22.785156 106.960938 22.785156 C 107.34375 22.785156 107.671875 22.71875 107.949219 22.582031 C 108.230469 22.441406 108.507812 22.226562 108.773438 21.945312 Z M 104.496094 17.269531 C 105.386719 16.453125 106.460938 16.046875 107.714844 16.046875 C 108.167969 16.046875 108.574219 16.121094 108.933594 16.273438 C 109.289062 16.417969 109.59375 16.625 109.839844 16.894531 C 110.085938 17.15625 110.273438 17.46875 110.398438 17.839844 C 110.53125 18.207031 110.59375 18.609375 110.59375 19.046875 L 110.59375 23.949219 L 109.75 23.949219 C 109.574219 23.949219 109.4375 23.925781 109.339844 23.875 C 109.246094 23.820312 109.167969 23.710938 109.113281 23.546875 L 108.949219 22.988281 C 108.75 23.164062 108.558594 23.320312 108.375 23.457031 C 108.1875 23.589844 107.992188 23.699219 107.792969 23.789062 C 107.589844 23.882812 107.375 23.949219 107.140625 23.996094 C 106.914062 24.046875 106.664062 24.070312 106.386719 24.070312 C 106.058594 24.070312 105.757812 24.027344 105.480469 23.941406 C 105.203125 23.851562 104.960938 23.71875 104.761719 23.542969 C 104.558594 23.363281 104.402344 23.144531 104.292969 22.882812 C 104.179688 22.621094 104.125 22.316406 104.125 21.96875 C 104.125 21.769531 104.160156 21.578125 104.222656 21.386719 C 104.289062 21.1875 104.394531 21.003906 104.542969 20.824219 C 104.691406 20.648438 104.886719 20.484375 105.125 20.328125 C 105.359375 20.171875 105.648438 20.035156 105.992188 19.917969 C 106.339844 19.800781 106.742188 19.710938 107.203125 19.636719 C 107.660156 19.5625 108.183594 19.519531 108.773438 19.503906 L 108.773438 19.046875 C 108.773438 18.53125 108.664062 18.144531 108.441406 17.898438 C 108.21875 17.648438 107.898438 17.519531 107.480469 17.519531 C 107.179688 17.519531 106.925781 17.554688 106.726562 17.625 C 106.527344 17.699219 106.355469 17.777344 106.203125 17.867188 C 106.054688 17.953125 105.914062 18.03125 105.789062 18.101562 C 105.667969 18.175781 105.53125 18.210938 105.378906 18.210938 C 105.25 18.210938 105.140625 18.175781 105.046875 18.109375 C 104.957031 18.039062 104.882812 17.960938 104.828125 17.867188 Z M 114.976562 21.9375 C 115.1875 22.195312 115.417969 22.375 115.664062 22.480469 C 115.914062 22.589844 116.1875 22.640625 116.480469 22.640625 C 116.761719 22.640625 117.015625 22.589844 117.242188 22.480469 C 117.46875 22.375 117.660156 22.214844 117.816406 22 C 117.980469 21.78125 118.101562 21.507812 118.1875 21.179688 C 118.273438 20.847656 118.316406 20.457031 118.316406 20.007812 C 118.316406 19.554688 118.277344 19.171875 118.203125 18.859375 C 118.132812 18.542969 118.027344 18.285156 117.894531 18.089844 C 117.757812 17.890625 117.589844 17.746094 117.394531 17.65625 C 117.203125 17.566406 116.984375 17.519531 116.738281 17.519531 C 116.347656 17.519531 116.019531 17.605469 115.746094 17.769531 C 115.472656 17.933594 115.21875 18.160156 114.976562 18.457031 Z M 114.878906 17.25 C 115.195312 16.890625 115.554688 16.601562 115.957031 16.378906 C 116.359375 16.15625 116.835938 16.046875 117.378906 16.046875 C 117.800781 16.046875 118.1875 16.132812 118.535156 16.3125 C 118.886719 16.488281 119.191406 16.746094 119.441406 17.082031 C 119.699219 17.414062 119.894531 17.828125 120.03125 18.324219 C 120.171875 18.8125 120.242188 19.375 120.242188 20.007812 C 120.242188 20.589844 120.164062 21.125 120.007812 21.621094 C 119.851562 22.113281 119.628906 22.542969 119.335938 22.90625 C 119.050781 23.269531 118.699219 23.554688 118.285156 23.761719 C 117.878906 23.960938 117.417969 24.0625 116.910156 24.0625 C 116.476562 24.0625 116.105469 23.996094 115.800781 23.867188 C 115.492188 23.730469 115.21875 23.542969 114.976562 23.308594 L 114.976562 26.484375 L 113.109375 26.484375 L 113.109375 16.191406 L 114.25 16.191406 C 114.492188 16.191406 114.652344 16.304688 114.726562 16.53125 Z M 124.324219 21.9375 C 124.535156 22.195312 124.761719 22.375 125.011719 22.480469 C 125.261719 22.589844 125.535156 22.640625 125.828125 22.640625 C 126.109375 22.640625 126.363281 22.589844 126.589844 22.480469 C 126.816406 22.375 127.007812 22.214844 127.164062 22 C 127.324219 21.78125 127.449219 21.507812 127.535156 21.179688 C 127.621094 20.847656 127.664062 20.457031 127.664062 20.007812 C 127.664062 19.554688 127.625 19.171875 127.550781 18.859375 C 127.480469 18.542969 127.375 18.285156 127.238281 18.089844 C 127.101562 17.890625 126.9375 17.746094 126.742188 17.65625 C 126.550781 17.566406 126.332031 17.519531 126.082031 17.519531 C 125.695312 17.519531 125.367188 17.605469 125.09375 17.769531 C 124.820312 17.933594 124.5625 18.160156 124.324219 18.457031 Z M 124.222656 17.25 C 124.542969 16.890625 124.902344 16.601562 125.304688 16.378906 C 125.707031 16.15625 126.179688 16.046875 126.726562 16.046875 C 127.148438 16.046875 127.535156 16.132812 127.882812 16.3125 C 128.234375 16.488281 128.535156 16.746094 128.789062 17.082031 C 129.046875 17.414062 129.242188 17.828125 129.378906 18.324219 C 129.519531 18.8125 129.589844 19.375 129.589844 20.007812 C 129.589844 20.589844 129.511719 21.125 129.355469 21.621094 C 129.199219 22.113281 128.976562 22.542969 128.683594 22.90625 C 128.394531 23.269531 128.046875 23.554688 127.632812 23.761719 C 127.222656 23.960938 126.765625 24.0625 126.257812 24.0625 C 125.824219 24.0625 125.453125 23.996094 125.144531 23.867188 C 124.839844 23.730469 124.5625 23.542969 124.324219 23.308594 L 124.324219 26.484375 L 122.457031 26.484375 L 122.457031 16.191406 L 123.597656 16.191406 C 123.839844 16.191406 123.996094 16.304688 124.074219 16.53125 Z M 124.222656 17.25 "></path><path style=" stroke:none;fill-rule:nonzero;fill:rgb(0%,0%,0%);fill-opacity:1;" d="M 62.332031 37.457031 C 62.390625 37.457031 62.441406 37.484375 62.484375 37.53125 L 62.90625 37.984375 C 62.585938 38.355469 62.195312 38.644531 61.738281 38.851562 C 61.28125 39.058594 60.730469 39.164062 60.082031 39.164062 C 59.523438 39.164062 59.011719 39.066406 58.554688 38.875 C 58.097656 38.675781 57.703125 38.402344 57.382812 38.054688 C 57.058594 37.699219 56.804688 37.277344 56.628906 36.785156 C 56.449219 36.296875 56.359375 35.753906 56.359375 35.164062 C 56.359375 34.574219 56.453125 34.035156 56.640625 33.542969 C 56.824219 33.050781 57.085938 32.628906 57.417969 32.273438 C 57.757812 31.921875 58.160156 31.648438 58.632812 31.457031 C 59.101562 31.257812 59.617188 31.160156 60.1875 31.160156 C 60.742188 31.160156 61.234375 31.25 61.660156 31.429688 C 62.085938 31.605469 62.460938 31.847656 62.785156 32.15625 L 62.433594 32.640625 C 62.414062 32.675781 62.382812 32.707031 62.347656 32.734375 C 62.316406 32.757812 62.269531 32.765625 62.210938 32.765625 C 62.144531 32.765625 62.066406 32.730469 61.972656 32.664062 C 61.878906 32.589844 61.753906 32.511719 61.601562 32.421875 C 61.449219 32.335938 61.257812 32.257812 61.027344 32.1875 C 60.796875 32.113281 60.515625 32.078125 60.179688 32.078125 C 59.777344 32.078125 59.40625 32.148438 59.074219 32.292969 C 58.738281 32.429688 58.449219 32.632812 58.207031 32.898438 C 57.964844 33.164062 57.777344 33.488281 57.644531 33.871094 C 57.507812 34.253906 57.441406 34.683594 57.441406 35.164062 C 57.441406 35.652344 57.511719 36.085938 57.648438 36.46875 C 57.789062 36.851562 57.980469 37.175781 58.222656 37.441406 C 58.464844 37.703125 58.75 37.90625 59.078125 38.042969 C 59.410156 38.179688 59.765625 38.25 60.148438 38.25 C 60.382812 38.25 60.589844 38.238281 60.777344 38.210938 C 60.964844 38.183594 61.136719 38.140625 61.292969 38.082031 C 61.453125 38.023438 61.601562 37.949219 61.738281 37.863281 C 61.875 37.773438 62.011719 37.664062 62.144531 37.539062 C 62.207031 37.484375 62.269531 37.457031 62.332031 37.457031 Z M 65.453125 31.03125 L 65.453125 39.074219 L 64.480469 39.074219 L 64.480469 31.03125 Z M 68.601562 33.542969 L 68.601562 39.074219 L 67.628906 39.074219 L 67.628906 33.542969 Z M 68.808594 31.804688 C 68.808594 31.898438 68.789062 31.988281 68.75 32.074219 C 68.710938 32.152344 68.660156 32.226562 68.597656 32.292969 C 68.535156 32.351562 68.460938 32.402344 68.371094 32.4375 C 68.289062 32.476562 68.199219 32.492188 68.105469 32.492188 C 68.007812 32.492188 67.921875 32.476562 67.835938 32.4375 C 67.757812 32.402344 67.6875 32.351562 67.625 32.292969 C 67.5625 32.226562 67.511719 32.152344 67.476562 32.074219 C 67.441406 31.988281 67.421875 31.898438 67.421875 31.804688 C 67.421875 31.710938 67.441406 31.621094 67.476562 31.539062 C 67.511719 31.449219 67.5625 31.375 67.625 31.3125 C 67.6875 31.25 67.757812 31.199219 67.835938 31.160156 C 67.921875 31.125 68.007812 31.105469 68.105469 31.105469 C 68.199219 31.105469 68.289062 31.125 68.371094 31.160156 C 68.460938 31.199219 68.535156 31.25 68.597656 31.3125 C 68.660156 31.375 68.710938 31.449219 68.75 31.539062 C 68.789062 31.621094 68.808594 31.710938 68.808594 31.804688 Z M 74.589844 34.527344 C 74.5625 34.566406 74.53125 34.597656 74.503906 34.617188 C 74.476562 34.640625 74.433594 34.652344 74.382812 34.652344 C 74.328125 34.652344 74.269531 34.628906 74.203125 34.585938 C 74.136719 34.539062 74.054688 34.488281 73.957031 34.433594 C 73.863281 34.378906 73.746094 34.328125 73.605469 34.285156 C 73.464844 34.238281 73.292969 34.214844 73.089844 34.214844 C 72.816406 34.214844 72.578125 34.261719 72.371094 34.363281 C 72.164062 34.457031 71.988281 34.59375 71.847656 34.777344 C 71.707031 34.957031 71.601562 35.179688 71.53125 35.4375 C 71.460938 35.695312 71.425781 35.984375 71.425781 36.304688 C 71.425781 36.640625 71.464844 36.941406 71.539062 37.203125 C 71.617188 37.460938 71.722656 37.679688 71.863281 37.859375 C 72.003906 38.03125 72.171875 38.167969 72.371094 38.261719 C 72.570312 38.351562 72.792969 38.398438 73.042969 38.398438 C 73.277344 38.398438 73.472656 38.371094 73.625 38.316406 C 73.777344 38.257812 73.902344 38.195312 74.003906 38.125 C 74.105469 38.054688 74.1875 37.992188 74.253906 37.941406 C 74.320312 37.882812 74.390625 37.851562 74.453125 37.851562 C 74.535156 37.851562 74.597656 37.882812 74.640625 37.945312 L 74.914062 38.300781 C 74.792969 38.449219 74.65625 38.578125 74.503906 38.683594 C 74.351562 38.789062 74.183594 38.878906 74.007812 38.949219 C 73.832031 39.019531 73.648438 39.070312 73.457031 39.101562 C 73.261719 39.136719 73.066406 39.152344 72.867188 39.152344 C 72.519531 39.152344 72.199219 39.089844 71.902344 38.960938 C 71.605469 38.832031 71.347656 38.648438 71.132812 38.410156 C 70.914062 38.164062 70.742188 37.867188 70.617188 37.511719 C 70.492188 37.160156 70.433594 36.757812 70.433594 36.304688 C 70.433594 35.894531 70.488281 35.515625 70.601562 35.164062 C 70.71875 34.816406 70.886719 34.515625 71.105469 34.261719 C 71.324219 34.007812 71.597656 33.808594 71.917969 33.667969 C 72.242188 33.527344 72.613281 33.453125 73.03125 33.453125 C 73.417969 33.453125 73.761719 33.519531 74.054688 33.644531 C 74.355469 33.769531 74.617188 33.945312 74.847656 34.175781 Z M 77.480469 31.03125 L 77.480469 35.765625 L 77.730469 35.765625 C 77.804688 35.765625 77.863281 35.757812 77.910156 35.738281 C 77.960938 35.714844 78.015625 35.675781 78.070312 35.613281 L 79.816406 33.738281 C 79.867188 33.675781 79.917969 33.628906 79.972656 33.597656 C 80.03125 33.5625 80.109375 33.542969 80.203125 33.542969 L 81.082031 33.542969 L 79.046875 35.710938 C 78.949219 35.835938 78.839844 35.929688 78.730469 36 C 78.792969 36.042969 78.851562 36.09375 78.902344 36.152344 C 78.957031 36.207031 79.007812 36.273438 79.058594 36.34375 L 81.21875 39.074219 L 80.351562 39.074219 C 80.265625 39.074219 80.195312 39.0625 80.132812 39.039062 C 80.074219 39.007812 80.023438 38.957031 79.980469 38.882812 L 78.160156 36.617188 C 78.105469 36.542969 78.050781 36.492188 77.996094 36.46875 C 77.945312 36.445312 77.867188 36.433594 77.757812 36.433594 L 77.480469 36.433594 L 77.480469 39.074219 L 76.503906 39.074219 L 76.503906 31.03125 Z M 91.117188 32.136719 L 88.585938 32.136719 L 88.585938 39.074219 L 87.53125 39.074219 L 87.53125 32.136719 L 84.992188 32.136719 L 84.992188 31.25 L 91.117188 31.25 Z M 93.59375 33.453125 C 93.996094 33.453125 94.359375 33.523438 94.683594 33.65625 C 95.007812 33.792969 95.285156 33.984375 95.515625 34.230469 C 95.746094 34.476562 95.917969 34.777344 96.039062 35.132812 C 96.164062 35.480469 96.222656 35.871094 96.222656 36.304688 C 96.222656 36.742188 96.164062 37.136719 96.039062 37.484375 C 95.917969 37.835938 95.746094 38.132812 95.515625 38.382812 C 95.285156 38.628906 95.007812 38.820312 94.683594 38.957031 C 94.359375 39.085938 93.996094 39.152344 93.59375 39.152344 C 93.1875 39.152344 92.820312 39.085938 92.492188 38.957031 C 92.167969 38.820312 91.890625 38.628906 91.660156 38.382812 C 91.433594 38.132812 91.253906 37.835938 91.132812 37.484375 C 91.011719 37.136719 90.953125 36.742188 90.953125 36.304688 C 90.953125 35.871094 91.011719 35.480469 91.132812 35.132812 C 91.253906 34.777344 91.433594 34.476562 91.660156 34.230469 C 91.890625 33.984375 92.167969 33.792969 92.492188 33.65625 C 92.820312 33.523438 93.1875 33.453125 93.59375 33.453125 Z M 93.59375 38.394531 C 94.140625 38.394531 94.546875 38.210938 94.816406 37.847656 C 95.085938 37.480469 95.21875 36.96875 95.21875 36.3125 C 95.21875 35.652344 95.085938 35.140625 94.816406 34.769531 C 94.546875 34.402344 94.140625 34.21875 93.59375 34.21875 C 93.316406 34.21875 93.074219 34.265625 92.867188 34.363281 C 92.664062 34.457031 92.492188 34.59375 92.355469 34.769531 C 92.21875 34.949219 92.117188 35.171875 92.050781 35.433594 C 91.984375 35.691406 91.949219 35.984375 91.949219 36.3125 C 91.949219 36.96875 92.085938 37.480469 92.355469 37.847656 C 92.628906 38.210938 93.039062 38.394531 93.59375 38.394531 Z M 107.925781 35.3125 L 107.925781 38.316406 C 107.53125 38.601562 107.109375 38.8125 106.664062 38.957031 C 106.21875 39.09375 105.730469 39.164062 105.199219 39.164062 C 104.570312 39.164062 104.003906 39.066406 103.496094 38.875 C 102.992188 38.675781 102.558594 38.402344 102.199219 38.054688 C 101.84375 37.699219 101.566406 37.277344 101.375 36.785156 C 101.179688 36.296875 101.085938 35.753906 101.085938 35.164062 C 101.085938 34.566406 101.175781 34.023438 101.363281 33.53125 C 101.550781 33.039062 101.820312 32.621094 102.164062 32.269531 C 102.511719 31.917969 102.929688 31.644531 103.425781 31.449219 C 103.921875 31.257812 104.472656 31.160156 105.085938 31.160156 C 105.394531 31.160156 105.683594 31.183594 105.949219 31.230469 C 106.214844 31.277344 106.460938 31.339844 106.683594 31.429688 C 106.910156 31.511719 107.121094 31.617188 107.3125 31.738281 C 107.503906 31.859375 107.6875 31.996094 107.851562 32.148438 L 107.554688 32.628906 C 107.503906 32.703125 107.445312 32.75 107.367188 32.773438 C 107.292969 32.789062 107.210938 32.773438 107.121094 32.71875 C 107.035156 32.667969 106.933594 32.605469 106.820312 32.53125 C 106.707031 32.460938 106.570312 32.390625 106.40625 32.324219 C 106.246094 32.253906 106.054688 32.195312 105.832031 32.148438 C 105.617188 32.101562 105.355469 32.078125 105.054688 32.078125 C 104.613281 32.078125 104.214844 32.152344 103.859375 32.296875 C 103.5 32.4375 103.195312 32.644531 102.945312 32.914062 C 102.695312 33.179688 102.503906 33.503906 102.367188 33.886719 C 102.234375 34.265625 102.164062 34.691406 102.164062 35.164062 C 102.164062 35.65625 102.234375 36.097656 102.375 36.488281 C 102.515625 36.871094 102.714844 37.203125 102.972656 37.476562 C 103.234375 37.746094 103.550781 37.949219 103.921875 38.09375 C 104.292969 38.234375 104.710938 38.304688 105.171875 38.304688 C 105.539062 38.304688 105.859375 38.265625 106.140625 38.183594 C 106.421875 38.101562 106.699219 37.988281 106.96875 37.839844 L 106.96875 36.121094 L 105.75 36.121094 C 105.683594 36.121094 105.625 36.101562 105.582031 36.058594 C 105.542969 36.019531 105.523438 35.972656 105.523438 35.914062 L 105.523438 35.3125 Z M 113.5 35.707031 C 113.5 35.480469 113.464844 35.273438 113.398438 35.089844 C 113.335938 34.898438 113.246094 34.738281 113.121094 34.601562 C 113 34.464844 112.855469 34.359375 112.679688 34.285156 C 112.503906 34.207031 112.304688 34.171875 112.085938 34.171875 C 111.617188 34.171875 111.25 34.308594 110.976562 34.582031 C 110.707031 34.851562 110.539062 35.226562 110.472656 35.707031 Z M 114.285156 38.300781 C 114.164062 38.445312 114.019531 38.574219 113.851562 38.683594 C 113.683594 38.789062 113.503906 38.875 113.3125 38.945312 C 113.125 39.015625 112.925781 39.066406 112.722656 39.097656 C 112.519531 39.132812 112.316406 39.152344 112.117188 39.152344 C 111.734375 39.152344 111.382812 39.089844 111.058594 38.960938 C 110.738281 38.828125 110.460938 38.640625 110.222656 38.394531 C 109.992188 38.140625 109.808594 37.832031 109.675781 37.464844 C 109.546875 37.097656 109.480469 36.675781 109.480469 36.195312 C 109.480469 35.8125 109.539062 35.449219 109.65625 35.117188 C 109.777344 34.78125 109.945312 34.492188 110.167969 34.246094 C 110.390625 34 110.660156 33.804688 110.980469 33.667969 C 111.300781 33.527344 111.664062 33.453125 112.0625 33.453125 C 112.394531 33.453125 112.699219 33.511719 112.980469 33.625 C 113.261719 33.734375 113.507812 33.894531 113.710938 34.105469 C 113.917969 34.3125 114.082031 34.570312 114.195312 34.878906 C 114.3125 35.1875 114.371094 35.535156 114.371094 35.929688 C 114.371094 36.082031 114.355469 36.183594 114.324219 36.234375 C 114.289062 36.285156 114.226562 36.3125 114.136719 36.3125 L 110.441406 36.3125 C 110.453125 36.660156 110.5 36.964844 110.582031 37.222656 C 110.671875 37.484375 110.789062 37.699219 110.945312 37.875 C 111.097656 38.046875 111.277344 38.175781 111.488281 38.261719 C 111.699219 38.34375 111.9375 38.386719 112.199219 38.386719 C 112.441406 38.386719 112.652344 38.359375 112.828125 38.304688 C 113.003906 38.246094 113.15625 38.183594 113.285156 38.121094 C 113.414062 38.054688 113.519531 37.992188 113.601562 37.941406 C 113.6875 37.882812 113.761719 37.851562 113.824219 37.851562 C 113.90625 37.851562 113.96875 37.882812 114.011719 37.945312 Z M 117.765625 39.164062 C 117.328125 39.164062 116.992188 39.042969 116.757812 38.796875 C 116.523438 38.554688 116.40625 38.203125 116.40625 37.742188 L 116.40625 34.355469 L 115.742188 34.355469 C 115.683594 34.355469 115.632812 34.339844 115.59375 34.308594 C 115.554688 34.269531 115.535156 34.214844 115.535156 34.144531 L 115.535156 33.753906 L 116.4375 33.640625 L 116.664062 31.929688 C 116.675781 31.875 116.699219 31.832031 116.734375 31.800781 C 116.773438 31.761719 116.824219 31.746094 116.886719 31.746094 L 117.378906 31.746094 L 117.378906 33.652344 L 118.976562 33.652344 L 118.976562 34.355469 L 117.378906 34.355469 L 117.378906 37.675781 C 117.378906 37.910156 117.433594 38.082031 117.546875 38.195312 C 117.660156 38.308594 117.804688 38.367188 117.984375 38.367188 C 118.085938 38.367188 118.171875 38.351562 118.246094 38.328125 C 118.324219 38.296875 118.386719 38.265625 118.441406 38.234375 C 118.496094 38.203125 118.542969 38.171875 118.578125 38.148438 C 118.617188 38.117188 118.652344 38.101562 118.683594 38.101562 C 118.734375 38.101562 118.777344 38.132812 118.820312 38.195312 L 119.101562 38.660156 C 118.933594 38.816406 118.734375 38.941406 118.496094 39.03125 C 118.261719 39.121094 118.015625 39.164062 117.765625 39.164062 Z M 127.886719 36.167969 L 126.65625 32.984375 C 126.621094 32.890625 126.582031 32.78125 126.542969 32.65625 C 126.503906 32.53125 126.464844 32.394531 126.429688 32.253906 C 126.351562 32.546875 126.273438 32.792969 126.195312 32.992188 L 124.964844 36.167969 Z M 130.089844 39.074219 L 129.273438 39.074219 C 129.175781 39.074219 129.101562 39.050781 129.042969 39.003906 C 128.984375 38.957031 128.941406 38.898438 128.910156 38.824219 L 128.179688 36.933594 L 124.671875 36.933594 L 123.9375 38.824219 C 123.917969 38.890625 123.875 38.949219 123.8125 39 C 123.753906 39.050781 123.675781 39.074219 123.585938 39.074219 L 122.765625 39.074219 L 125.894531 31.25 L 126.964844 31.25 Z M 135.136719 34.527344 C 135.105469 34.566406 135.078125 34.597656 135.046875 34.617188 C 135.019531 34.640625 134.980469 34.652344 134.925781 34.652344 C 134.875 34.652344 134.8125 34.628906 134.746094 34.585938 C 134.683594 34.539062 134.601562 34.488281 134.5 34.433594 C 134.40625 34.378906 134.289062 34.328125 134.148438 34.285156 C 134.007812 34.238281 133.839844 34.214844 133.632812 34.214844 C 133.359375 34.214844 133.121094 34.261719 132.914062 34.363281 C 132.707031 34.457031 132.53125 34.59375 132.390625 34.777344 C 132.25 34.957031 132.144531 35.179688 132.074219 35.4375 C 132.003906 35.695312 131.96875 35.984375 131.96875 36.304688 C 131.96875 36.640625 132.007812 36.941406 132.082031 37.203125 C 132.160156 37.460938 132.269531 37.679688 132.40625 37.859375 C 132.546875 38.03125 132.71875 38.167969 132.914062 38.261719 C 133.113281 38.351562 133.335938 38.398438 133.585938 38.398438 C 133.820312 38.398438 134.015625 38.371094 134.167969 38.316406 C 134.320312 38.257812 134.449219 38.195312 134.546875 38.125 C 134.648438 38.054688 134.730469 37.992188 134.796875 37.941406 C 134.867188 37.882812 134.933594 37.851562 135 37.851562 C 135.078125 37.851562 135.140625 37.882812 135.183594 37.945312 L 135.457031 38.300781 C 135.335938 38.449219 135.199219 38.578125 135.046875 38.683594 C 134.894531 38.789062 134.730469 38.878906 134.550781 38.949219 C 134.375 39.019531 134.191406 39.070312 134 39.101562 C 133.808594 39.136719 133.609375 39.152344 133.410156 39.152344 C 133.066406 39.152344 132.742188 39.089844 132.445312 38.960938 C 132.148438 38.832031 131.894531 38.648438 131.675781 38.410156 C 131.457031 38.164062 131.285156 37.867188 131.160156 37.511719 C 131.039062 37.160156 130.976562 36.757812 130.976562 36.304688 C 130.976562 35.894531 131.03125 35.515625 131.144531 35.164062 C 131.261719 34.816406 131.429688 34.515625 131.648438 34.261719 C 131.871094 34.007812 132.140625 33.808594 132.460938 33.667969 C 132.785156 33.527344 133.15625 33.453125 133.574219 33.453125 C 133.964844 33.453125 134.304688 33.519531 134.601562 33.644531 C 134.898438 33.769531 135.164062 33.945312 135.390625 34.175781 Z M 140.796875 34.527344 C 140.769531 34.566406 140.738281 34.597656 140.710938 34.617188 C 140.679688 34.640625 140.640625 34.652344 140.589844 34.652344 C 140.535156 34.652344 140.476562 34.628906 140.410156 34.585938 C 140.34375 34.539062 140.261719 34.488281 140.164062 34.433594 C 140.070312 34.378906 139.953125 34.328125 139.808594 34.285156 C 139.671875 34.238281 139.5 34.214844 139.296875 34.214844 C 139.023438 34.214844 138.785156 34.261719 138.578125 34.363281 C 138.371094 34.457031 138.195312 34.59375 138.050781 34.777344 C 137.914062 34.957031 137.808594 35.179688 137.734375 35.4375 C 137.667969 35.695312 137.632812 35.984375 137.632812 36.304688 C 137.632812 36.640625 137.671875 36.941406 137.746094 37.203125 C 137.824219 37.460938 137.929688 37.679688 138.070312 37.859375 C 138.210938 38.03125 138.378906 38.167969 138.578125 38.261719 C 138.777344 38.351562 139 38.398438 139.25 38.398438 C 139.484375 38.398438 139.679688 38.371094 139.832031 38.316406 C 139.984375 38.257812 140.109375 38.195312 140.207031 38.125 C 140.308594 38.054688 140.394531 37.992188 140.460938 37.941406 C 140.527344 37.882812 140.597656 37.851562 140.660156 37.851562 C 140.742188 37.851562 140.804688 37.882812 140.847656 37.945312 L 141.121094 38.300781 C 141 38.449219 140.863281 38.578125 140.710938 38.683594 C 140.558594 38.789062 140.390625 38.878906 140.214844 38.949219 C 140.039062 39.019531 139.855469 39.070312 139.664062 39.101562 C 139.46875 39.136719 139.273438 39.152344 139.074219 39.152344 C 138.726562 39.152344 138.40625 39.089844 138.105469 38.960938 C 137.8125 38.832031 137.554688 38.648438 137.335938 38.410156 C 137.121094 38.164062 136.949219 37.867188 136.824219 37.511719 C 136.699219 37.160156 136.640625 36.757812 136.640625 36.304688 C 136.640625 35.894531 136.695312 35.515625 136.808594 35.164062 C 136.925781 34.816406 137.09375 34.515625 137.308594 34.261719 C 137.53125 34.007812 137.804688 33.808594 138.125 33.667969 C 138.449219 33.527344 138.820312 33.453125 139.238281 33.453125 C 139.625 33.453125 139.96875 33.519531 140.261719 33.644531 C 140.5625 33.769531 140.824219 33.945312 141.054688 34.175781 Z M 144.945312 33.453125 C 145.347656 33.453125 145.710938 33.523438 146.035156 33.65625 C 146.359375 33.792969 146.636719 33.984375 146.863281 34.230469 C 147.09375 34.476562 147.269531 34.777344 147.390625 35.132812 C 147.511719 35.480469 147.574219 35.871094 147.574219 36.304688 C 147.574219 36.742188 147.511719 37.136719 147.390625 37.484375 C 147.269531 37.835938 147.09375 38.132812 146.863281 38.382812 C 146.636719 38.628906 146.359375 38.820312 146.035156 38.957031 C 145.710938 39.085938 145.347656 39.152344 144.945312 39.152344 C 144.535156 39.152344 144.167969 39.085938 143.839844 38.957031 C 143.515625 38.820312 143.242188 38.628906 143.011719 38.382812 C 142.78125 38.132812 142.605469 37.835938 142.480469 37.484375 C 142.363281 37.136719 142.300781 36.742188 142.300781 36.304688 C 142.300781 35.871094 142.363281 35.480469 142.480469 35.132812 C 142.605469 34.777344 142.78125 34.476562 143.011719 34.230469 C 143.242188 33.984375 143.515625 33.792969 143.839844 33.65625 C 144.167969 33.523438 144.535156 33.453125 144.945312 33.453125 Z M 144.945312 38.394531 C 145.488281 38.394531 145.898438 38.210938 146.167969 37.847656 C 146.4375 37.480469 146.570312 36.96875 146.570312 36.3125 C 146.570312 35.652344 146.4375 35.140625 146.167969 34.769531 C 145.898438 34.402344 145.488281 34.21875 144.945312 34.21875 C 144.667969 34.21875 144.425781 34.265625 144.21875 34.363281 C 144.015625 34.457031 143.84375 34.59375 143.703125 34.769531 C 143.570312 34.949219 143.46875 35.171875 143.398438 35.433594 C 143.332031 35.691406 143.300781 35.984375 143.300781 36.3125 C 143.300781 36.96875 143.433594 37.480469 143.703125 37.847656 C 143.976562 38.210938 144.390625 38.394531 144.945312 38.394531 Z M 153.898438 33.542969 L 153.898438 39.074219 L 153.320312 39.074219 C 153.183594 39.074219 153.09375 39.007812 153.058594 38.875 L 152.980469 38.277344 C 152.742188 38.542969 152.472656 38.757812 152.175781 38.921875 C 151.875 39.082031 151.535156 39.164062 151.148438 39.164062 C 150.847656 39.164062 150.578125 39.113281 150.347656 39.015625 C 150.117188 38.914062 149.925781 38.773438 149.765625 38.589844 C 149.609375 38.40625 149.492188 38.1875 149.414062 37.929688 C 149.335938 37.671875 149.296875 37.382812 149.296875 37.070312 L 149.296875 33.542969 L 150.269531 33.542969 L 150.269531 37.070312 C 150.269531 37.488281 150.363281 37.8125 150.554688 38.042969 C 150.746094 38.273438 151.039062 38.386719 151.433594 38.386719 C 151.71875 38.386719 151.988281 38.320312 152.234375 38.183594 C 152.484375 38.046875 152.71875 37.859375 152.925781 37.617188 L 152.925781 33.542969 Z M 156.902344 34.34375 C 157.023438 34.210938 157.148438 34.089844 157.285156 33.980469 C 157.417969 33.871094 157.5625 33.777344 157.710938 33.699219 C 157.863281 33.621094 158.023438 33.5625 158.191406 33.519531 C 158.363281 33.476562 158.546875 33.453125 158.742188 33.453125 C 159.042969 33.453125 159.308594 33.507812 159.539062 33.609375 C 159.773438 33.707031 159.964844 33.847656 160.117188 34.035156 C 160.273438 34.214844 160.390625 34.4375 160.472656 34.695312 C 160.550781 34.953125 160.59375 35.238281 160.59375 35.550781 L 160.59375 39.074219 L 159.617188 39.074219 L 159.617188 35.550781 C 159.617188 35.132812 159.519531 34.808594 159.324219 34.582031 C 159.136719 34.347656 158.847656 34.230469 158.457031 34.230469 C 158.171875 34.230469 157.902344 34.300781 157.648438 34.4375 C 157.402344 34.578125 157.171875 34.765625 156.960938 35 L 156.960938 39.074219 L 155.984375 39.074219 L 155.984375 33.542969 L 156.570312 33.542969 C 156.707031 33.542969 156.792969 33.609375 156.824219 33.746094 Z M 164.242188 39.164062 C 163.804688 39.164062 163.46875 39.042969 163.230469 38.796875 C 163 38.554688 162.882812 38.203125 162.882812 37.742188 L 162.882812 34.355469 L 162.214844 34.355469 C 162.160156 34.355469 162.109375 34.339844 162.070312 34.308594 C 162.027344 34.269531 162.007812 34.214844 162.007812 34.144531 L 162.007812 33.753906 L 162.914062 33.640625 L 163.140625 31.929688 C 163.148438 31.875 163.171875 31.832031 163.210938 31.800781 C 163.25 31.761719 163.300781 31.746094 163.363281 31.746094 L 163.855469 31.746094 L 163.855469 33.652344 L 165.453125 33.652344 L 165.453125 34.355469 L 163.855469 34.355469 L 163.855469 37.675781 C 163.855469 37.910156 163.910156 38.082031 164.023438 38.195312 C 164.136719 38.308594 164.28125 38.367188 164.460938 38.367188 C 164.5625 38.367188 164.648438 38.351562 164.722656 38.328125 C 164.796875 38.296875 164.863281 38.265625 164.917969 38.234375 C 164.972656 38.203125 165.019531 38.171875 165.054688 38.148438 C 165.09375 38.117188 165.128906 38.101562 165.160156 38.101562 C 165.210938 38.101562 165.253906 38.132812 165.296875 38.195312 L 165.578125 38.660156 C 165.410156 38.816406 165.210938 38.941406 164.972656 39.03125 C 164.738281 39.121094 164.492188 39.164062 164.242188 39.164062 Z M 164.242188 39.164062 "></path><path style=" stroke:none;fill-rule:nonzero;fill:rgb(100%,100%,100%);fill-opacity:1;" d="M 20.300781 21.941406 C 20.136719 22.148438 19.898438 22.425781 19.714844 22.636719 C 19.644531 22.714844 19.578125 22.789062 19.523438 22.847656 C 19.539062 22.871094 19.550781 22.894531 19.566406 22.917969 L 19.574219 22.929688 L 19.585938 22.945312 L 19.730469 23.183594 L 19.734375 23.183594 L 19.734375 23.1875 C 20.390625 24.273438 21.183594 25.269531 22.09375 26.148438 L 22.097656 26.148438 C 22.191406 26.242188 22.277344 26.328125 22.363281 26.414062 C 22.570312 26.617188 22.753906 26.800781 22.957031 26.980469 L 22.960938 26.984375 C 24.039062 27.945312 25.261719 28.730469 26.582031 29.3125 C 26.691406 29.359375 26.761719 29.390625 26.828125 29.417969 C 26.917969 29.457031 27.007812 29.496094 27.199219 29.578125 L 27.203125 29.582031 C 27.269531 29.609375 27.339844 29.636719 27.410156 29.660156 C 28.277344 28.601562 28.757812 28.023438 29.03125 27.710938 C 29.167969 27.554688 29.261719 27.449219 29.328125 27.382812 C 29.355469 27.351562 29.402344 27.304688 29.457031 27.257812 C 29.464844 27.253906 29.476562 27.242188 29.492188 27.230469 C 29.710938 27.039062 29.964844 26.894531 30.238281 26.800781 C 30.535156 26.703125 30.847656 26.664062 31.15625 26.691406 C 31.425781 26.707031 31.691406 26.773438 31.9375 26.882812 L 31.945312 26.882812 L 31.953125 26.886719 C 32.605469 27.1875 33.46875 27.574219 34.171875 27.886719 C 34.523438 28.042969 34.832031 28.179688 35.054688 28.277344 C 35.164062 28.324219 35.253906 28.363281 35.316406 28.390625 L 35.386719 28.421875 L 35.410156 28.433594 L 34.988281 29.394531 L 35.410156 28.433594 L 35.414062 28.433594 L 35.421875 28.4375 L 36.863281 29.089844 L 36.875 29.097656 L 36.890625 29.105469 C 37.179688 29.246094 37.421875 29.460938 37.597656 29.699219 C 37.769531 29.9375 37.933594 30.269531 37.949219 30.664062 C 37.949219 30.675781 37.949219 30.683594 37.949219 30.691406 C 37.960938 30.882812 37.972656 31.214844 37.90625 31.769531 C 37.820312 32.476562 37.609375 33.375 37.347656 33.925781 M 20.300781 21.941406 L 36.398438 33.476562 M 20.300781 21.941406 C 20.59375 21.558594 20.847656 21.1875 21.015625 20.914062 C 21.402344 20.285156 21.652344 19.4375 21.324219 18.628906 C 20.628906 16.910156 19.90625 15.199219 19.164062 13.5 C 18.980469 13.074219 18.652344 12.785156 18.355469 12.605469 C 18.054688 12.417969 17.703125 12.296875 17.355469 12.253906 L 17.339844 12.253906 C 17.210938 12.238281 17.058594 12.222656 16.90625 12.210938 L 16.894531 12.210938 L 16.878906 12.207031 C 16.84375 12.207031 16.808594 12.203125 16.769531 12.203125 L 16.746094 12.179688 L 16.300781 12.199219 C 16.117188 12.199219 15.9375 12.207031 15.753906 12.21875 L 15.757812 12.222656 C 15.296875 12.253906 14.851562 12.375 14.441406 12.582031 L 14.414062 12.59375 L 14.390625 12.609375 C 14.042969 12.808594 13.722656 13.054688 13.445312 13.347656 C 13.132812 13.644531 12.921875 13.921875 12.773438 14.125 C 12.75 14.15625 12.726562 14.1875 12.703125 14.21875 Z M 37.347656 33.925781 L 36.398438 33.476562 M 37.347656 33.925781 L 36.398438 33.476562 M 37.347656 33.925781 C 37.164062 34.316406 36.917969 34.664062 36.640625 34.953125 M 36.398438 33.476562 C 36.265625 33.761719 36.085938 34.015625 35.878906 34.230469 C 35.601562 34.523438 35.398438 34.699219 35.0625 34.949219 M 36.640625 34.953125 L 35.878906 34.230469 L 36.636719 34.957031 C 36.636719 34.957031 36.640625 34.957031 36.640625 34.953125 Z M 36.640625 34.953125 C 36.316406 35.292969 36.066406 35.511719 35.695312 35.789062 M 35.695312 35.789062 C 35.695312 35.789062 35.699219 35.785156 35.699219 35.785156 L 35.0625 34.949219 M 35.695312 35.789062 C 35.585938 35.871094 35.5 35.933594 35.4375 35.976562 C 35.40625 36 35.382812 36.015625 35.363281 36.03125 C 35.355469 36.035156 35.347656 36.039062 35.339844 36.042969 L 35.332031 36.050781 L 35.328125 36.050781 L 35.328125 36.054688 C 35.328125 36.054688 35.328125 36.054688 34.753906 35.175781 M 35.695312 35.789062 C 35.691406 35.789062 35.691406 35.789062 35.691406 35.792969 L 35.0625 34.949219 M 35.0625 34.949219 L 34.753906 35.175781 M 34.753906 35.175781 L 35.328125 36.054688 L 35.324219 36.054688 L 35.320312 36.058594 C 34.988281 36.273438 34.644531 36.472656 34.292969 36.652344 C 33.523438 37.066406 32.667969 37.304688 31.796875 37.351562 L 31.792969 37.351562 C 31.722656 37.355469 31.648438 37.359375 31.574219 37.363281 C 31.195312 37.382812 30.746094 37.40625 30.304688 37.382812 L 30.253906 37.382812 L 30.203125 37.375 L 28.796875 37.15625 L 28.742188 37.148438 L 28.6875 37.132812 C 25.003906 36.15625 21.601562 34.324219 18.746094 31.789062 C 18.238281 31.335938 17.757812 30.855469 17.304688 30.394531 C 17.234375 30.324219 17.160156 30.25 17.089844 30.179688 C 14.816406 27.890625 13.070312 25.402344 11.996094 23.011719 L 11.996094 23.007812 C 11.453125 21.796875 11.09375 20.457031 11.085938 19.054688 M 34.753906 35.175781 L 11.085938 19.054688 M 11.085938 19.054688 C 11.078125 17.308594 11.644531 15.605469 12.703125 14.21875 Z M 24.773438 48.949219 L 24.769531 48.949219 C 20.582031 48.957031 16.464844 47.835938 12.84375 45.707031 L 12.460938 45.480469 L 12.035156 45.597656 L 1.5 48.5 L 4.371094 37.855469 L 4.484375 37.433594 L 4.269531 37.054688 C 2.152344 33.398438 1.042969 29.238281 1.050781 25 C 1.050781 11.765625 11.679688 1.050781 24.773438 1.050781 C 37.867188 1.050781 48.496094 11.765625 48.496094 25 C 48.496094 38.234375 37.867188 48.949219 24.773438 48.949219 Z M 24.773438 48.949219 "></path><g clip-path="url(#clip1)" clip-rule="nonzero"><path style="fill:none;stroke-width:5;stroke-linecap:butt;stroke-linejoin:miter;stroke:rgb(88.627451%,86.666667%,16.078431%);stroke-opacity:1;stroke-miterlimit:4;" d="M 48.350785 52.220547 C 47.960034 52.713281 47.392515 53.373359 46.955246 53.875391 C 46.787781 54.061328 46.62962 54.237969 46.49937 54.377422 C 46.536584 54.433203 46.564495 54.488984 46.60171 54.544766 L 46.620317 54.572656 L 46.648227 54.609844 L 46.992461 55.176953 L 47.001764 55.176953 L 47.001764 55.18625 C 48.564768 57.770781 50.453398 60.141484 52.621136 62.233281 L 52.630439 62.233281 C 52.853726 62.456406 53.058405 62.660937 53.263084 62.865469 C 53.756174 63.348906 54.193443 63.785859 54.67723 64.213516 L 54.686534 64.222813 C 57.254326 66.509844 60.166352 68.378516 63.310967 69.76375 C 63.571468 69.875312 63.738932 69.949687 63.897093 70.014766 C 64.111076 70.107734 64.325059 70.200703 64.780935 70.395938 L 64.790239 70.405234 C 64.9484 70.470312 65.115864 70.535391 65.283329 70.591172 C 67.348727 68.071719 68.49307 66.695781 69.144321 65.952031 C 69.469947 65.580156 69.693233 65.329141 69.851394 65.171094 C 69.91652 65.096719 70.028163 64.985156 70.158413 64.873594 C 70.17702 64.864297 70.204931 64.836406 70.242145 64.808516 C 70.763147 64.352969 71.367881 64.008984 72.019132 63.785859 C 72.726205 63.553437 73.470493 63.460469 74.205477 63.525547 C 74.847425 63.562734 75.48007 63.720781 76.066196 63.981094 L 76.084803 63.981094 L 76.103411 63.990391 C 77.657111 64.70625 79.713206 65.626641 81.387853 66.370391 C 82.225176 66.742266 82.96016 67.067656 83.490465 67.300078 C 83.750966 67.411641 83.964949 67.504609 84.113806 67.569688 L 84.281271 67.644063 L 84.337093 67.671953 L 83.332304 69.958984 L 84.337093 67.671953 L 84.346396 67.671953 L 84.365003 67.68125 L 87.79803 69.233828 L 87.825941 69.252422 L 87.863155 69.271016 C 88.551621 69.605703 89.128444 70.117031 89.547106 70.684141 C 89.956464 71.25125 90.347215 72.041484 90.38443 72.980469 C 90.38443 73.008359 90.38443 73.026953 90.38443 73.045547 C 90.41234 73.501094 90.440251 74.291328 90.28209 75.611484 C 90.077411 77.294219 89.575017 79.4325 88.951676 80.743359 M 48.350785 52.220547 L 86.690902 79.674219 M 48.350785 52.220547 C 49.048555 51.309453 49.653289 50.42625 50.053343 49.775469 C 50.974399 48.278672 51.569829 46.26125 50.788327 44.336797 C 49.132287 40.246172 47.411122 36.174141 45.643439 32.13 C 45.20617 31.116641 44.424668 30.428672 43.717595 30.001016 C 43.001218 29.554766 42.163894 29.266562 41.335874 29.164297 L 41.29866 29.164297 C 40.991641 29.127109 40.628801 29.089922 40.265961 29.062031 L 40.23805 29.062031 L 40.200836 29.052734 C 40.117103 29.052734 40.033371 29.043437 39.940335 29.043437 L 39.884514 28.987656 L 38.823904 29.034141 C 38.386635 29.034141 37.958669 29.052734 37.5214 29.080625 L 37.530704 29.089922 C 36.43288 29.164297 35.37227 29.4525 34.395392 29.945234 L 34.330267 29.973125 L 34.274446 30.010312 C 33.446426 30.484453 32.683531 31.070156 32.022975 31.767422 C 31.278688 32.473984 30.776294 33.134062 30.422757 33.6175 C 30.366935 33.691875 30.311114 33.76625 30.255292 33.840625 Z M 88.951676 80.743359 L 86.690902 79.674219 M 88.951676 80.743359 L 86.690902 79.674219 M 88.951676 80.743359 C 88.514407 81.673047 87.92828 82.500469 87.267725 83.188437 M 86.690902 79.674219 C 86.37458 80.352891 85.946615 80.957188 85.453524 81.468516 C 84.792969 82.165781 84.309182 82.584141 83.509073 83.179141 M 87.267725 83.188437 L 85.453524 81.468516 L 87.258422 83.197734 C 87.258422 83.197734 87.267725 83.197734 87.267725 83.188437 Z M 87.267725 83.188437 C 86.495527 83.997266 85.900097 84.517891 85.016255 85.177969 M 85.016255 85.177969 C 85.016255 85.177969 85.025559 85.168672 85.025559 85.168672 L 83.509073 83.179141 M 85.016255 85.177969 C 84.755754 85.373203 84.551075 85.521953 84.402218 85.624219 C 84.327789 85.68 84.271967 85.717187 84.225449 85.754375 C 84.206842 85.763672 84.188235 85.772969 84.169628 85.782266 L 84.151021 85.800859 L 84.141717 85.800859 L 84.141717 85.810156 C 84.141717 85.810156 84.141717 85.810156 82.774089 83.718359 M 85.016255 85.177969 C 85.006951 85.177969 85.006951 85.177969 85.006951 85.187266 L 83.509073 83.179141 M 83.509073 83.179141 L 82.774089 83.718359 M 82.774089 83.718359 L 84.141717 85.810156 L 84.132413 85.810156 L 84.12311 85.819453 C 83.332304 86.330781 82.513588 86.804922 81.676264 87.232578 C 79.843456 88.218047 77.805969 88.785156 75.731267 88.896719 L 75.721963 88.896719 C 75.554498 88.906016 75.37773 88.915312 75.200962 88.924609 C 74.298513 88.971094 73.2286 89.026875 72.177293 88.971094 L 72.056347 88.971094 L 71.9354 88.9525 L 68.586106 88.431875 L 68.455855 88.413281 L 68.325605 88.376094 C 59.552314 86.051875 51.448883 81.691641 44.647954 75.657969 C 43.438487 74.579531 42.294145 73.436016 41.214928 72.338984 C 41.047463 72.171641 40.870695 71.995 40.70323 71.827656 C 35.288537 66.379688 31.12983 60.457578 28.571342 54.767891 L 28.571342 54.758594 C 27.278142 51.876562 26.422211 48.687734 26.403604 45.350156 M 82.774089 83.718359 L 26.403604 45.350156 M 26.403604 45.350156 C 26.384997 41.194453 27.734018 37.141016 30.255292 33.840625 Z M 59.003402 116.499141 L 58.994099 116.499141 C 49.020644 116.517734 39.214655 113.849531 30.590222 108.782734 L 29.678469 108.243516 L 28.664378 108.522422 L 3.572581 115.43 L 10.410723 90.096016 L 10.680528 89.091953 L 10.16883 88.190156 C 5.126281 79.488281 2.48406 69.587109 2.502667 59.5 C 2.502667 28.002187 27.81775 2.500859 59.003402 2.500859 C 90.189054 2.500859 115.504137 28.002187 115.504137 59.5 C 115.504137 90.997812 90.189054 116.499141 59.003402 116.499141 Z M 59.003402 116.499141 " transform="matrix(0.419865,0,0,0.420168,0,0)"></path></g><path style=" stroke:none;fill-rule:nonzero;fill:rgb(100%,100%,100%);fill-opacity:1;" d="M 9.902344 10.355469 L 39.203125 10.355469 L 39.203125 39.707031 L 9.902344 39.707031 Z M 9.902344 10.355469 "></path><path style=" stroke:none;fill-rule:nonzero;fill:rgb(14.901961%,82.745098%,40.392157%);fill-opacity:1;" d="M 24.722656 7.144531 C 34.667969 7.144531 42.730469 15.222656 42.730469 25.1875 C 42.730469 35.15625 34.667969 43.234375 24.722656 43.234375 C 21.542969 43.242188 18.417969 42.394531 15.667969 40.789062 L 6.726562 43.234375 L 9.160156 34.269531 C 7.554688 31.515625 6.710938 28.378906 6.71875 25.1875 C 6.71875 15.222656 14.78125 7.144531 24.722656 7.144531 Z M 18.585938 16.707031 L 18.226562 16.722656 C 17.996094 16.734375 17.765625 16.796875 17.558594 16.902344 C 17.363281 17.011719 17.183594 17.152344 17.027344 17.3125 C 16.8125 17.519531 16.691406 17.695312 16.558594 17.867188 C 15.890625 18.734375 15.535156 19.800781 15.539062 20.894531 C 15.542969 21.777344 15.773438 22.640625 16.132812 23.445312 C 16.871094 25.070312 18.082031 26.796875 19.679688 28.390625 C 20.066406 28.777344 20.445312 29.164062 20.851562 29.523438 C 22.839844 31.273438 25.207031 32.539062 27.765625 33.214844 L 28.789062 33.371094 C 29.121094 33.390625 29.453125 33.363281 29.789062 33.347656 C 30.3125 33.320312 30.828125 33.179688 31.289062 32.929688 C 31.527344 32.808594 31.753906 32.675781 31.980469 32.535156 C 31.980469 32.535156 32.058594 32.484375 32.203125 32.371094 C 32.449219 32.191406 32.597656 32.0625 32.796875 31.851562 C 32.949219 31.695312 33.078125 31.515625 33.175781 31.308594 C 33.316406 31.011719 33.457031 30.453125 33.515625 29.984375 C 33.558594 29.625 33.546875 29.433594 33.539062 29.3125 C 33.535156 29.117188 33.375 28.917969 33.199219 28.832031 L 32.152344 28.363281 C 32.152344 28.363281 30.582031 27.675781 29.625 27.242188 C 29.527344 27.195312 29.417969 27.171875 29.308594 27.167969 C 29.1875 27.152344 29.0625 27.167969 28.945312 27.207031 C 28.828125 27.246094 28.71875 27.3125 28.628906 27.394531 C 28.621094 27.390625 28.5 27.496094 27.195312 29.078125 C 27.121094 29.175781 27.019531 29.253906 26.902344 29.292969 C 26.78125 29.335938 26.65625 29.34375 26.535156 29.3125 C 26.417969 29.277344 26.300781 29.238281 26.191406 29.191406 C 25.96875 29.097656 25.890625 29.0625 25.738281 28.996094 C 24.703125 28.542969 23.746094 27.933594 22.902344 27.1875 C 22.671875 26.988281 22.460938 26.773438 22.246094 26.5625 C 21.539062 25.882812 20.921875 25.113281 20.410156 24.273438 L 20.304688 24.101562 C 20.226562 23.988281 20.164062 23.863281 20.121094 23.734375 C 20.050781 23.46875 20.230469 23.253906 20.230469 23.253906 C 20.230469 23.253906 20.667969 22.773438 20.871094 22.515625 C 21.070312 22.261719 21.238281 22.015625 21.34375 21.839844 C 21.558594 21.5 21.625 21.148438 21.511719 20.875 C 21.007812 19.640625 20.484375 18.410156 19.949219 17.191406 C 19.84375 16.949219 19.527344 16.777344 19.242188 16.742188 C 19.144531 16.730469 19.046875 16.71875 18.949219 16.710938 C 18.707031 16.699219 18.464844 16.703125 18.222656 16.71875 Z M 18.585938 16.707031 "></path></g></svg>